<?xml version="1.0" encoding="UTF-8" standalone="no"?>
<!-- Generator: Adobe Illustrator 22.1.0, SVG Export Plug-In . SVG Version: 6.00 Build 0)  -->

<svg
   version="1.1"
   id="Layer_1"
   x="0px"
   y="0px"
   viewBox="0 0 130.24239 104.13498"
   xml:space="preserve"
   sodipodi:docname="simucube_symbol_logo_orange_no-r.svg"
   width="130.24239"
   height="104.13498"
   inkscape:version="1.2.2 (732a01da63, 2022-12-09)"
   xmlns:inkscape="http://www.inkscape.org/namespaces/inkscape"
   xmlns:sodipodi="http://sodipodi.sourceforge.net/DTD/sodipodi-0.dtd"
   xmlns="http://www.w3.org/2000/svg"
   xmlns:svg="http://www.w3.org/2000/svg"><defs
   id="defs1246" /><sodipodi:namedview
   id="namedview1244"
   pagecolor="#ffffff"
   bordercolor="#666666"
   borderopacity="1.0"
   inkscape:showpageshadow="2"
   inkscape:pageopacity="0.0"
   inkscape:pagecheckerboard="0"
   inkscape:deskcolor="#d1d1d1"
   showgrid="false"
   inkscape:zoom="5.3093463"
   inkscape:cx="110.55975"
   inkscape:cy="96.433716"
   inkscape:window-width="2560"
   inkscape:window-height="1377"
   inkscape:window-x="2552"
   inkscape:window-y="-8"
   inkscape:window-maximized="1"
   inkscape:current-layer="Layer_1" />
<style
   type="text/css"
   id="style1197">
	.st0{fill:#F26127;}
</style>





















<path
   class="st0"
   d="m 48.619896,24.339414 -1.532264,23.809016 1.119731,0.353599 c 0.766132,0.1768 1.178664,0.412533 1.767997,0.530399 l 1.532263,-25.105546 c -1.001865,0.1768 -1.885863,0.353599 -2.887727,0.412532"
   id="path1199"
   style="stroke-width:0.999996;fill:#e84e0f;fill-opacity:1" /><path
   class="st0"
   d="m 43.37484,47.205499 1.532264,-22.453552 c -1.296531,0.1768 -2.239462,0.353599 -3.12346,0.471466 l -1.47333,20.862355 z"
   id="path1201"
   style="stroke-width:0.999996;fill:#e84e0f;fill-opacity:1" /><path
   class="st0"
   d="m 65.23906,20.508756 c 9.54718,0.530399 16.737031,1.65013 26.107411,3.830658 0.707198,7.248785 1.237597,14.438636 1.65013,21.687421 -0.471466,0.176799 -11.138376,4.655723 -18.033562,6.364786 L 70.955581,49.97536 H 65.23906 V 74.196908 L 98.595255,56.104413 94.764597,16.972764 65.23906,0 Z"
   id="path1203"
   style="stroke-width:0.999996;fill:#e84e0f;fill-opacity:1" /><path
   class="st0"
   d="m 65.23906,20.508756 v 0 c 9.54718,0.530399 16.737031,1.65013 26.107411,3.830658 v 0 0 c 0.707198,7.248785 1.237597,14.438636 1.65013,21.687421 v 0 0 c -0.471466,0.176799 -11.138376,4.655723 -18.033562,6.364786 v 0 0 L 70.955581,49.97536 v 0 H 65.23906 v 0 0 24.221548 0 0 L 98.595255,56.104413 v 0 L 94.764597,16.972764 v 0 L 65.23906,0 v 0 0 20.508756 0 0 0 V 0 L 94.764597,17.031697 98.595255,56.163346 65.23906,74.255841 V 50.034293 h 5.716521 l 4.007458,2.416261 v 0 c 6.895186,-1.709063 17.562096,-6.187987 18.033562,-6.364786 v 0 c -0.3536,-7.248785 -0.942932,-14.497569 -1.65013,-21.68742 v 0 C 81.976091,22.217819 74.727306,21.039155 65.23906,20.508756 Z"
   id="path1205"
   style="stroke-width:0.999996;fill:#e84e0f;fill-opacity:1" /><path
   class="st0"
   d="m 62.056667,50.034293 h -5.716521 l -4.007458,2.416261 c -6.895185,-1.709063 -17.26743,-6.24692 -17.974628,-6.541586 0.353599,-7.248784 0.942931,-14.497569 1.650129,-21.68742 9.311447,-2.180529 16.501298,-3.182393 26.048478,-3.653859 V 0 L 32.53113,17.031697 28.700472,56.163346 62.056667,74.255841 Z"
   id="path1207"
   style="stroke-width:0.999996;fill:#e84e0f;fill-opacity:1" /><path
   class="st0"
   d="m 62.056667,50.034293 v 0 h -5.716521 v 0 l -4.007458,2.416261 v 0 0 C 45.437503,50.741491 35.065258,46.203634 34.35806,45.908968 v 0 0 c 0.353599,-7.248784 0.942931,-14.497569 1.650129,-21.68742 v 0 0 c 9.311447,-2.180529 16.501298,-3.182393 26.048478,-3.653859 v 0 V 0 0 0 L 32.53113,17.031697 v 0 l -3.830658,39.131649 v 0 l 33.356195,18.092495 v 0 0 -24.221548 0 0 0 0 24.221548 L 28.700472,56.163346 32.53113,17.031697 62.056667,0 v 20.508756 0 0 c -9.54718,0.530399 -16.678098,1.532263 -26.048478,3.653859 v 0 c -0.707198,7.248784 -1.237597,14.438636 -1.650129,21.68742 v 0 c 0.707198,0.294666 11.079443,4.77359 17.974628,6.541586 v 0 l 4.007458,-2.416261 z"
   id="path1209"
   style="stroke-width:0.999996;fill:#e84e0f;fill-opacity:1" /><path
   class="st0"
   d="m 9.3114467,89.932074 c 0.8250653,0 1.3554633,0.530399 1.3554633,1.414397 v 3.830658 L 7.7202501,94.175265 v -1.82693 H 2.9466604 v 1.885863 l 7.0130516,3.594926 c 0.530399,0.294666 0.707198,0.648265 0.707198,1.29653 v 3.594926 c 0,0.884 -0.530398,1.4144 -1.3554633,1.4144 H 1.414397 c -0.82506493,0 -1.35546379,-0.5304 -1.35546379,-1.4144 v -4.184258 l 2.88772719,1.178664 v 2.121594 H 7.7202501 V 99.714986 L 0.70719848,96.120061 C 0.17679962,95.884328 0,95.530729 0,94.82353 V 91.464337 C 0,90.580339 0.53039886,90.04994 1.3554638,90.04994"
   id="path1211"
   style="stroke-width:0.999996;fill:#e84e0f;fill-opacity:1" /><path
   class="st0"
   d="M 9.2525135,103.89924 H 1.414397 c -0.76613172,0 -1.23759738,-0.47146 -1.23759738,-1.29653 V 98.536322 L 2.8287939,99.59712 v 2.18053 H 7.8381165 V 99.42032 L 0.76613169,95.825395 C 0.29466604,95.589662 0.11786641,95.236063 0.11786641,94.64673 v -3.359192 c 0,-0.825065 0.47146566,-1.296531 1.23759739,-1.296531 h 7.8970497 c 0.7661315,0 1.2375975,0.471466 1.2375975,1.296531 v 3.653858 L 7.8381165,93.998465 V 92.112603 H 2.8287939 v 2.062662 l 7.0719849,3.594925 c 0.4714652,0.294666 0.6482652,0.589332 0.6482652,1.178665 v 3.594925 c -0.05893,0.82507 -0.471466,1.35546 -1.2965305,1.35546"
   id="path1213"
   style="stroke-width:0.999996;fill:#e84e0f;fill-opacity:1" /><rect
   x="18.092493"
   y="89.932068"
   class="st0"
   width="2.8877273"
   height="14.085036"
   id="rect1215"
   style="stroke-width:0.999996;fill:#e84e0f;fill-opacity:1" /><rect
   x="18.269295"
   y="90.049942"
   class="st0"
   width="2.6519942"
   height="13.849303"
   id="rect1217"
   style="stroke-width:0.999996;fill:#e84e0f;fill-opacity:1" /><polygon
   class="st0"
   points="56.6,170.3 56.6,182.3 51.8,182.3 51.8,158.4 56.7,158.4 63,172.4 69.4,158.4 74.3,158.4 74.3,182.3 69.4,182.3 69.4,170.3 64.9,179.9 61.2,179.9 "
   id="polygon1219"
   transform="matrix(0.58933207,0,0,0.58933207,-2.003729,-3.418126)"
   style="stroke-width:1.69683;fill:#e84e0f;fill-opacity:1" /><polygon
   class="st0"
   points="56.4,169.4 56.4,182.1 52,182.1 52,158.6 56.6,158.6 63,172.9 69.5,158.6 74.1,158.6 74.1,182.1 69.6,182.1 69.6,169.4 64.8,179.7 61.3,179.7 "
   id="polygon1221"
   transform="matrix(0.58933207,0,0,0.58933207,-2.003729,-3.418126)"
   style="stroke-width:1.69683;fill:#e84e0f;fill-opacity:1" /><path
   class="st0"
   d="m 50.152159,104.01711 c -0.883998,0 -1.355464,-0.5304 -1.355464,-1.4144 V 89.932074 h 2.887728 v 11.609846 h 5.303988 V 89.932074 h 2.887727 v 12.670636 c 0,0.884 -0.530399,1.4144 -1.355463,1.4144 z"
   id="path1223"
   style="stroke-width:0.999996;fill:#e84e0f;fill-opacity:1" /><path
   class="st0"
   d="m 58.579608,103.89924 h -8.427449 c -0.766132,0 -1.237597,-0.47146 -1.237597,-1.29653 V 90.04994 h 2.651994 v 11.60984 h 5.598655 V 90.04994 h 2.651994 v 12.55277 c 0,0.76614 -0.471466,1.29653 -1.237597,1.29653"
   id="path1225"
   style="stroke-width:0.999996;fill:#e84e0f;fill-opacity:1" /><path
   class="st0"
   d="m 85.571017,104.01711 c -0.883999,0 -1.355464,-0.5304 -1.355464,-1.4144 V 89.932074 h 2.887727 v 11.609846 h 5.303989 V 89.932074 h 2.887727 v 12.670636 c 0,0.884 -0.530399,1.4144 -1.355464,1.4144 z"
   id="path1227"
   style="stroke-width:0.999996;fill:#e84e0f;fill-opacity:1" /><path
   class="st0"
   d="m 93.998465,103.89924 h -8.427448 c -0.825065,0 -1.237598,-0.47146 -1.237598,-1.29653 V 90.04994 h 2.651995 v 11.60984 h 5.598654 V 90.04994 h 2.651995 v 12.55277 c 0,0.76614 -0.471466,1.29653 -1.237598,1.29653"
   id="path1229"
   style="stroke-width:0.999996;fill:#e84e0f;fill-opacity:1" /><path
   class="st0"
   d="M 102.36698,104.01711 V 89.932074 h 9.48825 c 0.82506,0 1.35546,0.530399 1.35546,1.414397 v 3.359193 c 0,0.648265 -0.23573,1.001864 -0.76613,1.29653 l -1.17867,0.707199 1.29654,0.707198 c 0.58933,0.294666 0.76613,0.648265 0.76613,1.296531 v 3.830658 c 0,0.884 -0.5304,1.4144 -1.4144,1.4144 h -9.54718 z m 8.07385,-2.35733 v -2.946658 l -1.47333,-0.883998 h -3.65386 v 3.830656 z m -1.53226,-6.011185 1.41439,-0.942931 v -2.416262 h -5.00932 v 3.359193 z"
   id="path1231"
   style="stroke-width:0.999996;fill:#e84e0f;fill-opacity:1" /><path
   class="st0"
   d="m 111.97309,103.89924 h -9.42931 v -13.8493 h 9.37038 c 0.76613,0 1.2376,0.471466 1.2376,1.296531 v 3.359193 c 0,0.589332 -0.1768,0.942931 -0.7072,1.237597 l -1.35546,0.825065 1.47333,0.825065 c 0.53039,0.294666 0.70719,0.589332 0.70719,1.237597 v 3.830662 c -0.0589,0.7072 -0.5304,1.23759 -1.29653,1.23759 m -1.53226,-11.727704 h -5.24506 v 3.594925 h 3.77173 l 1.47333,-1.001864 z m 0.11787,6.482653 -1.5912,-0.942932 h -3.77173 v 4.066393 h 5.36293 z"
   id="path1233"
   style="stroke-width:0.999996;fill:#e84e0f;fill-opacity:1" /><polygon
   class="st0"
   points="212.6,168.1 219.4,168.1 219.4,172.1 212.6,172.1 212.6,178 224.4,178 224.4,182.3 207.7,182.3 207.7,158.4 224.3,158.4 224.3,162.6 212.6,162.6 "
   id="polygon1235"
   transform="matrix(0.58933207,0,0,0.58933207,-2.003729,-3.418126)"
   style="stroke-width:1.69683;fill:#e84e0f;fill-opacity:1" /><polygon
   class="st0"
   points="212.4,168.3 219.2,168.3 219.2,171.9 212.4,171.9 212.4,178.3 224.2,178.3 224.2,182.1 207.9,182.1 207.9,158.6 224.1,158.6 224.1,162.4 212.4,162.4 "
   id="polygon1237"
   transform="matrix(0.58933207,0,0,0.58933207,-2.003729,-3.418126)"
   style="stroke-width:1.69683;fill:#e84e0f;fill-opacity:1" /><polygon
   class="st0"
   points="123.6,177.1 134.1,177.1 134.1,182.2 120.3,182.2 115.1,170.1 120.3,158 133.9,158 134,163.1 123.6,163.1 120.6,170.1 "
   id="polygon1239"
   transform="matrix(0.58933207,0,0,0.58933207,-2.003729,-3.418126)"
   style="stroke-width:1.69683;fill:#e84e0f;fill-opacity:1" /><polygon
   class="st0"
   points="115.4,170.1 120.4,181.9 133.9,181.9 133.9,177.3 123.5,177.3 120.4,170.1 123.5,162.9 133.7,162.9 133.7,158.3 120.4,158.3 "
   id="polygon1241"
   transform="matrix(0.58933207,0,0,0.58933207,-2.003729,-3.418126)"
   style="stroke-width:1.69683;fill:#e84e0f;fill-opacity:1" />
</svg>
